<svg width="1383" height="146" viewBox="0 0 1383 146" fill="none" xmlns="http://www.w3.org/2000/svg">
<path d="M271.295 56.982C273.267 51.9949 271.551 46.8651 267.505 43.705C265.205 41.9078 261.707 40.3724 258.453 40.3605L194.962 40.1462C190.695 40.1343 186.649 39.5214 182.49 40.051C178.772 40.5271 175.28 39.9141 171.472 39.9141L106.681 39.8784C102.051 39.8784 94.2869 43.9431 93.977 48.3707C93.6672 52.7984 97.7013 55.8334 103.69 55.8572L198.525 56.2024C209.162 56.2381 218.97 62.0167 225.322 69.6639C232.258 78.0133 234.552 88.6956 232.902 99.0446C231.15 110.042 227.277 119.987 219.59 128.158C210.884 137.412 199.258 145.279 185.755 145.291L12.6029 145.416C8.06267 145.416 3.74751 142.196 1.72203 138.849C-1.28683 133.885 0.160794 117.448 2.16895 113.71C4.28846 109.763 8.75741 105.846 13.8119 105.835L155.192 105.573C159.358 105.567 166.478 101.389 165.632 96.0155C165.013 92.0997 159.316 89.6895 155.401 89.7014L66.4293 89.9335C57.3241 89.9573 48.5229 88.8087 40.6691 84.1966C29.4963 77.6384 23.3765 66.3193 24.3657 53.3637C25.3549 40.4081 30.2054 29.2616 39.0662 19.7398C48.654 9.40267 62.1806 1.59478 76.7738 0.850885L134.36 0.327185L192.316 0.184357C197.065 0.172455 201.368 0.208162 206.099 0.202211H216.718L224.607 0.172455L261.969 0.184357L271.146 0.214113L279.303 0.166504L290.732 0.220064L309.646 0.178406H316.928L349.826 0.273624H373.221L407.56 0.178357C413.28 0.157612 418.455 4.90822 417.884 10.2777C417.507 13.8355 414.138 30.5736 410.166 34.3064C406.561 37.6935 401.583 40.1394 396.509 40.1819L358.032 40.5093C347.246 40.6045 339.345 48.9718 335.68 58.4341L330.317 72.2586L309.622 126.247C307.84 130.889 306.017 134.716 302.555 138.417C299.093 142.119 294.224 145.344 288.855 145.339L257.887 145.297C249.515 145.285 243.848 137.293 244.069 129.497C244.146 126.676 244.623 124.385 245.618 121.867L260.771 83.5538L271.301 56.9701L271.295 56.982Z" fill="white"/>
<path d="M783.607 0.213867C789.828 0.207959 795.96 1.6966 801.507 4.33887C809.593 8.19522 815.499 14.4319 820.242 21.835C822.435 25.251 823.946 35.066 823.043 40.6943C823.635 40.6943 824.583 40.6825 825.653 40.667V40.668C824.64 40.6827 823.75 40.6943 823.043 40.6943C823.042 44.4203 817.78 64.8265 810.421 72.1699L802.115 80.459C796.323 86.2375 783.755 88.2555 783.815 92.8379C783.839 94.6825 785.227 95.8369 786.622 97.0508L823.043 128.872C826.314 131.735 827.255 135.823 824.914 139.555C821.952 144.268 816.44 145.803 810.958 145.791L788.963 145.737L755.952 145.612L749.814 145.91L742.777 145.743C735.471 145.571 729.786 142.935 724.262 138.299L717.219 132.383L708.108 124.777L699.104 117.112L689.141 109.228C681.031 102.812 668.321 105.24 663.876 114.773L657.398 130.99C655.64 135.394 652.905 139.357 648.901 142.148C646.964 143.499 643.508 145.387 640.821 145.387H539.741C531.357 145.387 526.512 138.817 523.95 131.771C522.317 127.277 515.976 123.153 510.709 123.153L421.827 123.105C413.371 123.105 406.25 128.431 400.762 133.912C397.455 137.215 394.773 140.161 390.84 142.637C388.773 143.94 385.042 145.393 382.426 145.393L336.513 145.446C332.205 145.446 328.064 143.018 325.878 139.436C324.078 136.484 323.756 131.318 326.342 128.765L341.924 113.363L365.623 90.1543L370.813 85.1846L374.74 81.3701L390.137 66.4619L403.831 53.4111L411.959 45.9492L442.778 15.1045C450.018 7.85601 457.497 1.2854 468.187 0.446289L483.03 0.345703L493.631 0.279297H507.664L540.915 0.75C549.513 0.875055 558.255 7.77842 561.02 15.8184L566.496 36.7539L580.911 96.4141C582.037 101.068 586.822 104.835 591.273 104.234C597.005 103.461 600.765 98.5623 602.636 93.6289L612.802 66.8252L630.953 18.5381C634.933 7.95113 643.859 0.267746 655.598 0.267578H700.737L755.588 0.25L783.607 0.213867ZM1308.62 0C1313.52 0.73199 1318.01 0.351418 1322.94 0.107422C1339.56 -0.719759 1357.83 4.66574 1368.16 17.6689C1382.23 35.3795 1380.8 60.5048 1365.49 76.7217C1359.42 83.1489 1352.54 87.0231 1344.65 90.2783C1342.24 91.2722 1343.13 94.915 1344.37 95.9922L1354.03 104.365L1379.47 127.604C1381.79 129.723 1382.79 132.579 1382.54 135.555C1382.33 138.137 1380.86 140.726 1378.48 142.648C1375.46 145.088 1371.55 145.297 1367.34 145.464L1367.35 145.487L1358.09 145.856L1328.66 145.714L1296.66 145.303C1293.7 145.267 1289.2 143.601 1286.89 141.584L1250.33 109.811C1246.04 106.085 1240.37 104.722 1234.97 106.395C1230.33 107.829 1226.39 111.674 1224.53 116.881L1220.18 129.057C1217.67 137.507 1211.49 143.744 1202.57 145.458L1123.52 145.583L1114.98 145.689L1096.38 145.773L1076.59 145.72L994.181 145.309C989.73 145.285 985.344 142.208 982.49 139.34C978.462 135.299 977.329 129.67 978.199 123.975C979.081 118.208 981.769 112.857 983.95 107.376L992.578 85.6787L1003.81 56.5771C1005.22 52.9353 1005.92 50.0075 1004.07 46.2051C1002.84 43.6699 999.794 40.4206 995.849 40.4385L963.88 40.5986C958.404 40.6284 947.917 47.6684 945.348 54.6191L924.218 111.834L918.342 128.015C916.4 133.365 913.647 137.781 908.987 141.477C906.508 143.44 902.385 145.386 898.917 145.368L867.877 145.243C858.45 145.207 852.121 135.561 853.843 126.527C855.047 120.189 857.884 114.744 860.208 108.668L879.914 57.1074C882.714 49.7758 876.69 41.3076 868.765 40.6943L844.468 40.4951C836.424 40.2043 829.992 33.5929 829.992 25.4775V24.1836L829.847 24.7324V18.2939C829.847 12.0997 829.848 9.06885 832.934 5.36816C835.433 2.37247 840.312 0.511902 844.608 0.5L883.364 0.369141L896.104 0.255859L907.765 0.136719L915.13 0.154297L932.131 0.178711H940.003L952.176 0.25L966.472 0.232422L1010.01 0.202148L1022.4 0.244141H1032.62L1049.56 0.178711L1057.33 0.136719L1073.65 0.232422H1105.28L1133.34 0.220703L1148.68 0.232422L1162.58 0.130859C1167.64 0.0951541 1172.63 2.71356 1175.8 6.2959C1180.56 11.6637 1180.72 18.0913 1178.3 24.2744C1174.26 34.5995 1165.19 40.4023 1154.12 40.2061L1141.66 39.9795L1083.52 39.8486C1076.99 39.8367 1067.62 45.1035 1069.94 51.5664C1070.53 53.2148 1072.89 55.6725 1075.35 55.6904L1147.97 56.1367C1156.04 56.1846 1160.62 64.4691 1158.71 71.2949C1156.07 80.7213 1148.56 89.2253 1138.03 89.2314L1087.48 89.2734L1064.72 89.2197C1059.48 89.208 1054.55 91.8498 1052.67 96.9258C1051.95 98.8597 1053.53 102.305 1055.36 103.317C1058.12 104.853 1061.16 105.633 1064.49 105.627L1150.49 105.454C1160.11 105.436 1165.94 98.5684 1168.97 90.457L1182.39 54.501L1195.91 18.8652C1197.94 13.5034 1200.49 9.23662 1205.04 5.92188C1211.55 1.17883 1218.54 0.250004 1226.5 0.25H1242.05L1261.61 0.446289L1262.81 0.261719L1263.99 0H1308.62ZM504.864 47.6152C499.274 40.9381 487.762 41.9737 481.761 47.9961L464.253 65.5459C461.423 68.3845 459.517 71.3126 460.643 75.4248C461.328 77.9421 463.944 81.7031 467.823 81.6914L496.819 81.584C501.878 81.5661 506.443 77.9425 508.796 74.5742C511.722 70.3846 511.507 66.4742 510.238 62.0049C508.826 57.0597 508.326 51.7571 504.864 47.6152ZM699.283 39.9385C695.797 39.9326 691.579 42.8129 689.124 44.9434C683.749 49.609 681.097 58.7434 686.066 63.0283C687.77 64.4982 691 66.4149 693.324 66.415L731.526 66.4609C737.371 64.872 742.383 63.4989 746.489 59.375C748.449 57.4052 750.296 54.0004 750.308 50.9355C750.332 45.0679 744.999 40.0158 738.868 40.0098L699.283 39.9385ZM1261.61 39.9258C1253.86 39.9498 1243.88 49.3705 1245.73 59.3027C1246.35 62.6711 1250.17 66.2783 1254.05 66.2783L1291.15 66.2422C1299.94 66.2362 1312.78 58.375 1310.09 47.6572C1308.92 43.0155 1302.15 39.8194 1298.54 39.8252L1261.61 39.9258Z" fill="white"/>
</svg>
